<svg width="13" height="14" viewBox="0 0 13 14" fill="none" xmlns="http://www.w3.org/2000/svg">
<path d="M11.6605 0.333496H5.00652C4.26586 0.333496 3.66652 0.93283 3.66652 1.6735V5.4315L0.531857 8.52616C0.437934 8.61905 0.373725 8.73776 0.347378 8.8672C0.321032 8.99665 0.333736 9.131 0.383879 9.25322C0.434021 9.37543 0.519342 9.47999 0.629012 9.55363C0.738682 9.62727 0.867757 9.66667 0.999857 9.66683V13.0002C0.999857 13.177 1.0701 13.3465 1.19512 13.4716C1.32014 13.5966 1.48971 13.6668 1.66652 13.6668H12.3332C12.51 13.6668 12.6796 13.5966 12.8046 13.4716C12.9296 13.3465 12.9999 13.177 12.9999 13.0002V1.67283C12.9999 0.932829 12.4012 0.333496 11.6605 0.333496ZM6.28119 9.07416V12.3335H2.33319V8.6215L4.32452 6.6555L6.28119 8.6575V9.07416ZM7.66652 5.00016H6.33319V3.66683H7.66652V5.00016ZM10.3332 10.3335H8.99986V9.00016H10.3332V10.3335ZM10.3332 7.66683H8.99986V6.3335H10.3332V7.66683ZM10.3332 5.00016H8.99986V3.66683H10.3332V5.00016Z" fill="#DDDDDD"/>
</svg>
