<svg width="12" height="16" viewBox="0 0 12 16" fill="none" xmlns="http://www.w3.org/2000/svg">
<path d="M5.38333 15.68C0.842667 9.09467 0 8.41933 0 6C0 2.686 2.686 0 6 0C9.314 0 12 2.686 12 6C12 8.41933 11.1573 9.09333 6.61667 15.6773C6.54771 15.7766 6.45579 15.8578 6.34872 15.914C6.24165 15.9701 6.1226 15.9996 6.0017 15.9999C5.88079 16.0001 5.76162 15.9712 5.65431 15.9155C5.54699 15.8598 5.45472 15.779 5.38533 15.68L5.384 15.6773L5.38333 15.68ZM6 8.5C6.66304 8.5 7.29893 8.23661 7.76777 7.76777C8.23661 7.29893 8.5 6.66304 8.5 6C8.5 5.33696 8.23661 4.70107 7.76777 4.23223C7.29893 3.76339 6.66304 3.5 6 3.5C5.33696 3.5 4.70107 3.76339 4.23223 4.23223C3.76339 4.70107 3.5 5.33696 3.5 6C3.5 6.66304 3.76339 7.29893 4.23223 7.76777C4.70107 8.23661 5.33696 8.5 6 8.5Z" fill="#DDDDDD"/>
</svg>
