<svg width="64" height="64" viewBox="0 0 64 64" fill="none" xmlns="http://www.w3.org/2000/svg">
<path d="M32 0.5C14.6047 0.5 0.5 14.6047 0.5 32C0.5 49.3953 14.6047 63.5 32 63.5C49.3953 63.5 63.5 49.3953 63.5 32C63.5 14.6047 49.3953 0.5 32 0.5ZM42.132 32.4852L26.7758 43.6578C26.6916 43.7183 26.5924 43.7544 26.489 43.7622C26.3856 43.77 26.2821 43.7491 26.1898 43.7019C26.0975 43.6546 26.02 43.5829 25.9659 43.4945C25.9117 43.4061 25.883 43.3045 25.8828 43.2008V20.8695C25.8825 20.7657 25.9109 20.6637 25.965 20.575C26.019 20.4863 26.0966 20.4143 26.189 20.367C26.2815 20.3196 26.3853 20.2988 26.4888 20.3069C26.5924 20.3149 26.6917 20.3515 26.7758 20.4125L42.132 31.5781C42.2046 31.6294 42.2638 31.6974 42.3046 31.7763C42.3455 31.8552 42.3668 31.9428 42.3668 32.0316C42.3668 32.1205 42.3455 32.2081 42.3046 32.287C42.2638 32.3659 42.2046 32.4339 42.132 32.4852Z" fill="white"/>
</svg>
