<svg width="14" height="12" viewBox="0 0 14 12" fill="none" xmlns="http://www.w3.org/2000/svg">
<path d="M1.46063 2.19475C2.39596 1.18075 3.81129 0.666748 5.66663 0.666748H6.33329V2.54608L5.79729 2.65341C4.88396 2.83608 4.24863 3.19541 3.90863 3.72275C3.73122 4.00683 3.63061 4.33211 3.61663 4.66675H5.66663C5.84344 4.66675 6.01301 4.73699 6.13803 4.86201C6.26305 4.98703 6.33329 5.1566 6.33329 5.33341V10.0001C6.33329 10.7354 5.73529 11.3334 4.99996 11.3334H0.99996C0.823149 11.3334 0.65358 11.2632 0.528556 11.1382C0.403531 11.0131 0.333293 10.8436 0.333293 10.6667V7.33341L0.335293 5.38741C0.329293 5.31341 0.202627 3.56008 1.46063 2.19475ZM12.3333 11.3334H8.33329C8.15648 11.3334 7.98691 11.2632 7.86189 11.1382C7.73686 11.0131 7.66663 10.8436 7.66663 10.6667V7.33341L7.66863 5.38741C7.66263 5.31341 7.53596 3.56008 8.79396 2.19475C9.72929 1.18075 11.1446 0.666748 13 0.666748H13.6666V2.54608L13.1306 2.65341C12.2173 2.83608 11.582 3.19541 11.242 3.72275C11.0646 4.00683 10.9639 4.33211 10.95 4.66675H13C13.1768 4.66675 13.3463 4.73699 13.4714 4.86201C13.5964 4.98703 13.6666 5.1566 13.6666 5.33341V10.0001C13.6666 10.7354 13.0686 11.3334 12.3333 11.3334Z" fill="#DDDDDD"/>
</svg>
