<svg width="17" height="17" viewBox="0 0 17 17" fill="none" xmlns="http://www.w3.org/2000/svg">
<path d="M16.4993 16.4998L12.761 12.7548L16.4993 16.4998ZM14.8327 7.74984C14.8327 9.62845 14.0864 11.4301 12.758 12.7585C11.4296 14.0869 9.62797 14.8332 7.74935 14.8332C5.87073 14.8332 4.06906 14.0869 2.74068 12.7585C1.41229 11.4301 0.666016 9.62845 0.666016 7.74984C0.666016 5.87122 1.41229 4.06955 2.74068 2.74116C4.06906 1.41278 5.87073 0.666504 7.74935 0.666504C9.62797 0.666504 11.4296 1.41278 12.758 2.74116C14.0864 4.06955 14.8327 5.87122 14.8327 7.74984V7.74984Z" stroke="url(#paint0_linear_1304_1551)" stroke-linecap="round"/>
<defs>
<linearGradient id="paint0_linear_1304_1551" x1="0.666016" y1="0.666504" x2="16.4351" y2="-3.20609" gradientUnits="userSpaceOnUse">
<stop stop-color="#F95E5E"/>
<stop offset="1" stop-color="#AF2E2E"/>
</linearGradient>
</defs>
</svg>
