<svg width="16" height="14" viewBox="0 0 16 14" fill="none" xmlns="http://www.w3.org/2000/svg">
<path d="M15.6 5.8001H14V4.2001C14 3.9801 13.82 3.8001 13.6 3.8001H12.8C12.58 3.8001 12.4 3.9801 12.4 4.2001V5.8001H10.8C10.58 5.8001 10.4 5.9801 10.4 6.2001V7.0001C10.4 7.2201 10.58 7.4001 10.8 7.4001H12.4V9.0001C12.4 9.2201 12.58 9.4001 12.8 9.4001H13.6C13.82 9.4001 14 9.2201 14 9.0001V7.4001H15.6C15.82 7.4001 16 7.2201 16 7.0001V6.2001C16 5.9801 15.82 5.8001 15.6 5.8001ZM5.6 7.0001C7.3675 7.0001 8.8 5.5676 8.8 3.8001C8.8 2.0326 7.3675 0.600098 5.6 0.600098C3.8325 0.600098 2.4 2.0326 2.4 3.8001C2.4 5.5676 3.8325 7.0001 5.6 7.0001ZM7.84 7.8001H7.4225C6.8675 8.0551 6.25 8.2001 5.6 8.2001C4.95 8.2001 4.335 8.0551 3.7775 7.8001H3.36C1.505 7.8001 0 9.3051 0 11.1601V12.2001C0 12.8626 0.5375 13.4001 1.2 13.4001H10C10.6625 13.4001 11.2 12.8626 11.2 12.2001V11.1601C11.2 9.3051 9.695 7.8001 7.84 7.8001Z" fill="#DDDDDD"/>
</svg>
