<svg width="16" height="20" viewBox="0 0 16 20" fill="none" xmlns="http://www.w3.org/2000/svg">
<path d="M0.5 2.5C0.5 1.83696 0.763392 1.20107 1.23223 0.732233C1.70107 0.263392 2.33696 -6.61222e-08 3 -8.99887e-08L13 -4.49943e-07C13.663 -4.7381e-07 14.2989 0.263392 14.7678 0.732233C15.2366 1.20107 15.5 1.83696 15.5 2.5L15.5 19.375C15.4999 19.4881 15.4692 19.599 15.4111 19.6959C15.353 19.7929 15.2697 19.8723 15.17 19.9257C15.0703 19.979 14.9581 20.0044 14.8451 19.999C14.7322 19.9936 14.6229 19.9576 14.5288 19.895L8 16.3762L1.47125 19.895C1.37713 19.9576 1.26779 19.9936 1.15487 19.999C1.04194 20.0044 0.929667 19.979 0.83 19.9257C0.730333 19.8723 0.647006 19.7929 0.588893 19.6959C0.530781 19.599 0.500059 19.4881 0.500001 19.375L0.5 2.5ZM3 1.25C2.66848 1.25 2.35054 1.3817 2.11612 1.61612C1.8817 1.85054 1.75 2.16848 1.75 2.5L1.75 18.2075L7.65375 15.105C7.75633 15.0367 7.87679 15.0003 8 15.0003C8.12321 15.0003 8.24368 15.0367 8.34625 15.105L14.25 18.2075L14.25 2.5C14.25 2.16848 14.1183 1.85054 13.8839 1.61612C13.6495 1.3817 13.3315 1.25 13 1.25L3 1.25Z" fill="white"/>
</svg>
