<svg width="14" height="14" viewBox="0 0 14 14" fill="none" xmlns="http://www.w3.org/2000/svg">
<path d="M8.59094 7.00024L13.0441 2.54712C13.2554 2.33615 13.3743 2.04986 13.3745 1.75124C13.3748 1.45261 13.2564 1.16612 13.0455 0.954774C12.8345 0.743429 12.5482 0.624549 12.2496 0.624286C11.951 0.624022 11.6645 0.742396 11.4531 0.953368L7 5.40649L2.54687 0.953368C2.33553 0.742023 2.04888 0.623291 1.75 0.623291C1.45111 0.623291 1.16447 0.742023 0.953123 0.953368C0.741779 1.16471 0.623047 1.45136 0.623047 1.75024C0.623047 2.04913 0.741779 2.33577 0.953123 2.54712L5.40625 7.00024L0.953123 11.4534C0.741779 11.6647 0.623047 11.9514 0.623047 12.2502C0.623047 12.5491 0.741779 12.8358 0.953123 13.0471C1.16447 13.2585 1.45111 13.3772 1.75 13.3772C2.04888 13.3772 2.33553 13.2585 2.54687 13.0471L7 8.59399L11.4531 13.0471C11.6645 13.2585 11.9511 13.3772 12.25 13.3772C12.5489 13.3772 12.8355 13.2585 13.0469 13.0471C13.2582 12.8358 13.3769 12.5491 13.3769 12.2502C13.3769 11.9514 13.2582 11.6647 13.0469 11.4534L8.59094 7.00024Z" fill="url(#paint0_linear_1304_9)"/>
<defs>
<linearGradient id="paint0_linear_1304_9" x1="0.623047" y1="0.623291" x2="13.3252" y2="-2.49612" gradientUnits="userSpaceOnUse">
<stop stop-color="#F95E5E"/>
<stop offset="1" stop-color="#AF2E2E"/>
</linearGradient>
</defs>
</svg>
