<svg width="21" height="20" viewBox="0 0 21 20" fill="none" xmlns="http://www.w3.org/2000/svg">
<path d="M8.04516 18.333C7.42327 18.3016 6.83805 18.0492 6.41032 17.6277C5.8986 17.1694 5.44196 16.6607 5.04845 16.1104C4.43376 15.291 3.94787 14.3941 3.60548 13.4468C3.21799 12.4277 3.01414 11.3559 3.00218 10.2749C2.97208 9.21422 3.25424 8.16606 3.81812 7.24394C4.2311 6.57927 4.82017 6.02422 5.52911 5.63177C6.23021 5.24098 7.03025 5.03064 7.84736 5.02225C8.46334 5.05618 9.06865 5.18725 9.63748 5.40987C10.0914 5.59586 10.5681 5.7266 11.0577 5.79842C11.5977 5.6931 12.1254 5.53892 12.6332 5.33806C13.2342 5.1196 13.8705 4.99727 14.5153 4.97622C14.6013 4.97622 14.6864 4.97622 14.7685 4.98543C16.1828 5.02317 17.4982 5.66952 18.3289 6.73478C17.6806 7.05761 17.1411 7.5415 16.7704 8.13266C16.3997 8.72382 16.2124 9.39909 16.2293 10.0834C16.2228 10.6067 16.3355 11.1253 16.56 11.6051C16.7846 12.0848 17.1158 12.5148 17.5318 12.8667C17.9106 13.2028 18.3517 13.4716 18.8333 13.6613C18.7344 13.9375 18.6207 14.2045 18.5 14.4734C18.2261 15.0675 17.8881 15.6342 17.4912 16.1647C17.116 16.6962 16.6792 17.1878 16.1887 17.6305C15.7413 18.0438 15.1449 18.2876 14.5153 18.3146C13.9816 18.2926 13.4573 18.176 12.9705 17.9712C12.4455 17.7583 11.8813 17.6417 11.3089 17.6277C10.7203 17.6385 10.1395 17.7545 9.59792 17.9693C9.13016 18.1658 8.63041 18.2881 8.11934 18.3312L8.04516 18.333ZM11.1606 4.97622C11.0864 4.97622 11.0122 4.97622 10.938 4.96793C10.9224 4.85834 10.9142 4.74795 10.9133 4.6374C10.9457 3.71773 11.3317 2.83946 12.0012 2.16252C12.3757 1.77347 12.8296 1.45768 13.3364 1.23352C13.8087 1.00716 14.3249 0.870993 14.8545 0.833008C14.8694 0.953621 14.8694 1.07147 14.8694 1.1838C14.8555 2.08901 14.4901 2.95896 13.8408 3.6329C13.5264 4.02533 13.1236 4.34893 12.6605 4.581C12.1975 4.81306 11.6855 4.94796 11.1606 4.97622Z" fill="black"/>
</svg>
