<svg width="21" height="20" viewBox="0 0 21 20" fill="none" xmlns="http://www.w3.org/2000/svg">
<path d="M20.5 10C20.5 4.47715 16.0229 0 10.5 0C4.97715 0 0.5 4.47715 0.5 10C0.5 14.9913 4.15685 19.1283 8.9375 19.8785V12.8906H6.39844V10H8.9375V7.79688C8.9375 5.29062 10.4304 3.90626 12.7146 3.90626C13.8087 3.90626 14.9531 4.10156 14.9531 4.10156V6.5625H13.6922C12.4499 6.5625 12.0625 7.33334 12.0625 8.12417V10H14.8359L14.3926 12.8906H12.0625V19.8785C16.8431 19.1283 20.5 14.9913 20.5 10Z" fill="#1877F2"/>
<path d="M14.3926 12.8906L14.8359 10H12.0625V8.12415C12.0625 7.33334 12.4499 6.56249 13.6921 6.56249H14.9531V4.10156C14.9531 4.10156 13.8087 3.90625 12.7146 3.90625C10.4304 3.90625 8.9375 5.29062 8.9375 7.79687V10H6.39844V12.8906H8.9375V19.8785C9.45439 19.9595 9.9768 20.0001 10.5 20C11.0316 20 11.5534 19.9584 12.0625 19.8785V12.8906H14.3926Z" fill="white"/>
</svg>
