<svg width="21" height="20" viewBox="0 0 21 20" fill="none" xmlns="http://www.w3.org/2000/svg">
<g clip-path="url(#clip0_1513_5467)">
<path d="M20.2879 10.2247C20.2879 9.56634 20.2296 8.94134 20.1296 8.33301H10.7129V12.0913H16.1046C15.8629 13.3247 15.1546 14.3663 14.1046 15.0747V17.5747H17.3212C19.2046 15.833 20.2879 13.2663 20.2879 10.2247Z" fill="#4285F4"/>
<path d="M10.7121 19.9999C13.4121 19.9999 15.6704 19.0999 17.3204 17.5749L14.1038 15.0749C13.2038 15.6749 12.0621 16.0415 10.7121 16.0415C8.10378 16.0415 5.89544 14.2832 5.10378 11.9082H1.78711V14.4832C3.42878 17.7499 6.80378 19.9999 10.7121 19.9999Z" fill="#34A853"/>
<path d="M5.10456 11.9083C4.89622 11.3083 4.78789 10.6666 4.78789 9.99993C4.78789 9.33327 4.90456 8.6916 5.10456 8.0916V5.5166H1.78789C1.10456 6.8666 0.712891 8.38327 0.712891 9.99993C0.712891 11.6166 1.10456 13.1333 1.78789 14.4833L5.10456 11.9083Z" fill="#FBBC05"/>
<path d="M10.7121 3.95833C12.1871 3.95833 13.5038 4.46667 14.5454 5.45834L17.3954 2.60833C15.6704 0.991668 13.4121 0 10.7121 0C6.80378 0 3.42878 2.25 1.78711 5.51667L5.10378 8.09167C5.89544 5.71667 8.10378 3.95833 10.7121 3.95833Z" fill="#EA4335"/>
</g>
<defs>
<clipPath id="clip0_1513_5467">
<rect width="20" height="20" fill="white" transform="translate(0.5)"/>
</clipPath>
</defs>
</svg>
