<svg width="25" height="20" viewBox="0 0 25 20" fill="none" xmlns="http://www.w3.org/2000/svg">
<g clip-path="url(#clip0_1513_5482)">
<path d="M8.04774 19.505C17.1048 19.505 22.0577 12.0016 22.0577 5.49496C22.0577 5.28186 22.0534 5.06973 22.0438 4.85848C23.0075 4.16119 23.8392 3.29778 24.5 2.30872C23.6177 2.70093 22.6683 2.96493 21.6724 3.08396C22.6889 2.4743 23.4694 1.51005 23.8376 0.360478C22.871 0.933915 21.8135 1.33813 20.7109 1.55571C19.8123 0.598623 18.5332 0 17.1166 0C14.3974 0 12.1924 2.20515 12.1924 4.92332C12.1924 5.30973 12.2356 5.68559 12.3201 6.04607C8.22765 5.84014 4.59879 3.88078 2.17015 0.901438C1.73274 1.65283 1.50265 2.50687 1.5034 3.3763C1.5034 5.08463 2.3727 6.59274 3.69461 7.47501C2.91269 7.45116 2.14792 7.23996 1.46458 6.85916C1.46385 6.87985 1.46385 6.89999 1.46385 6.92205C1.46385 9.30672 3.16115 11.2977 5.41422 11.7489C4.99105 11.8642 4.5544 11.9224 4.11582 11.9222C3.80522 11.922 3.49535 11.8922 3.19038 11.8334C3.81727 13.7898 5.63505 15.2135 7.79018 15.2533C6.10489 16.5743 3.98189 17.361 1.67453 17.361C1.27757 17.361 0.885444 17.3385 0.5 17.2929C2.67922 18.6897 5.26684 19.5047 8.04798 19.5047" fill="#1DA1F2"/>
</g>
<defs>
<clipPath id="clip0_1513_5482">
<rect width="24" height="20" fill="white" transform="translate(0.5)"/>
</clipPath>
</defs>
</svg>
